<svg width="137" height="105" viewBox="0 0 137 105" fill="none" xmlns="http://www.w3.org/2000/svg">
<path d="M90.0574 64.3266L89.9723 61.7724L102.005 49.3989H104.418L95.6482 58.5939L94.4563 59.871L90.0574 64.3266ZM88.2411 69.2646V49.3989H90.3412V69.2646H88.2411ZM102.516 69.2646L93.9454 59.3885L95.3644 57.856L105.014 69.2646H102.516ZM108.417 69.2646V49.3989H110.517V69.2646H108.417ZM116.981 69.2646V49.3989H118.712L132.42 66.6537H131.511V49.3989H133.583V69.2646H131.852L118.173 52.0098H119.081V69.2646H116.981Z" fill="white"/>
<path d="M8.88283 69.2646L0.0851389 49.3989H2.35551L10.5856 68.1011H9.3369L17.6238 49.3989H19.7522L10.9545 69.2646H8.88283ZM22.6354 69.2646V49.3989H24.7355V69.2646H22.6354ZM35.0588 69.2646V51.2152H28.0774V49.3989H44.1403V51.2152H37.1589V69.2646H35.0588ZM43.3191 69.2646L52.4006 49.3989H54.4723L63.5537 69.2646H61.3401L52.9965 50.6192H53.8479L45.5043 69.2646H43.3191ZM46.8949 63.9577L47.5193 62.2549H59.0698L59.6941 63.9577H46.8949Z" fill="white"/>
<path d="M92.439 28.6478C90.5475 33.4292 88.9975 38.7886 87.789 44.7259H86.2127C86.528 43.2022 86.6856 41.7047 86.6856 40.2335C86.6856 37.1335 85.7661 34.5851 83.9271 32.5885C82.0881 30.5919 79.277 29.5936 75.494 29.5936C72.1838 29.5936 69.5041 30.4342 67.4549 32.1156C65.4583 33.797 64.46 36.2928 64.46 39.603C64.46 42.1776 65.2481 44.542 66.8244 46.6963C68.4532 48.8505 70.8702 51.3988 74.0753 54.3412C76.3346 56.3904 78.1474 58.1769 79.5135 59.7006C80.8796 61.2244 82.0355 62.9057 82.9813 64.7447C83.9271 66.5837 84.4 68.5541 84.4 70.6558C84.4 74.0711 83.4017 76.9609 81.405 79.3254C79.4609 81.6373 76.9652 83.3449 73.9177 84.4483C70.8702 85.5517 67.7176 86.1034 64.46 86.1034C61.6752 86.1034 59.4421 85.7619 57.7607 85.0788C56.1319 84.3958 54.6344 83.5288 53.2683 82.4779C52.27 81.6898 51.3242 81.2957 50.431 81.2957C49.8005 81.2957 49.2751 81.611 48.8547 82.2415C48.4344 82.872 47.8827 83.9754 47.1996 85.5517H45.6233C46.464 83.5551 47.2784 81.1644 48.0666 78.3796C48.9073 75.5423 49.8793 71.6278 50.9827 66.6363H52.559C52.0861 69.1058 51.8497 71.0499 51.8497 72.4685C51.8497 76.3042 52.9005 79.2728 55.0022 81.3745C57.1039 83.4763 60.3353 84.5271 64.6964 84.5271C68.2693 84.5271 71.0804 83.7127 73.1295 82.0839C75.2312 80.455 76.2821 77.9855 76.2821 74.6753C76.2821 72.6787 75.888 70.8397 75.0999 69.1583C74.3117 67.477 73.3397 66.0058 72.1837 64.7447C71.0803 63.4312 69.5303 61.8023 67.5337 59.8582C65.432 57.8616 63.7506 56.154 62.4896 54.7353C61.2811 53.3167 60.2302 51.6616 59.337 49.77C58.4963 47.8785 58.076 45.7768 58.076 43.4649C58.076 40.2072 58.8904 37.4224 60.5192 35.1106C62.2006 32.7987 64.3549 31.0648 66.982 29.9088C69.6617 28.7003 72.4727 28.0961 75.4151 28.0961C77.5694 28.0961 79.4347 28.3588 81.011 28.8842C82.5872 29.4097 84.1373 30.2503 85.661 31.4063C86.922 32.3521 87.789 32.8249 88.2619 32.8249C88.6822 32.8249 89.0763 32.5097 89.4441 31.8792C89.8644 31.1961 90.3373 30.119 90.8627 28.6478H92.439Z" fill="white"/>
</svg>
