<svg width="137" height="60" viewBox="0 0 137 60" fill="none" xmlns="http://www.w3.org/2000/svg">
<path d="M90.0575 36.3261L89.9724 33.7719L102.005 21.3984H104.418L95.6483 30.5934L94.4564 31.8705L90.0575 36.3261ZM88.2412 41.2641V21.3984H90.3413V41.2641H88.2412ZM102.516 41.2641L93.9455 31.388L95.3645 29.8555L105.014 41.2641H102.516ZM108.417 41.2641V21.3984H110.517V41.2641H108.417ZM116.981 41.2641V21.3984H118.712L132.42 38.6532H131.511V21.3984H133.583V41.2641H131.852L118.173 24.0093H119.081V41.2641H116.981Z" fill="white"/>
<path d="M8.88265 41.2641L0.0849609 21.3984H2.35533L10.5854 40.1006H9.33672L17.6236 21.3984H19.752L10.9543 41.2641H8.88265ZM22.6352 41.2641V21.3984H24.7353V41.2641H22.6352ZM35.0586 41.2641V23.2147H28.0772V21.3984H44.1401V23.2147H37.1587V41.2641H35.0586ZM43.3189 41.2641L52.4004 21.3984H54.4721L63.5535 41.2641H61.3399L52.9963 22.6187H53.8477L45.5041 41.2641H43.3189ZM46.8947 35.9572L47.5191 34.2544H59.0696L59.6939 35.9572H46.8947Z" fill="white"/>
<path d="M92.4388 0.647404C90.5473 5.4288 88.9972 10.7882 87.7887 16.7255H86.2124C86.5277 15.2018 86.6853 13.7043 86.6853 12.2331C86.6853 9.1331 85.7658 6.5847 83.9268 4.5881C82.0878 2.5915 79.2768 1.5932 75.4938 1.5932C72.1836 1.5932 69.5039 2.4338 67.4547 4.1152C65.4581 5.7966 64.4597 8.2924 64.4597 11.6026C64.4597 14.1772 65.2479 16.5416 66.8242 18.6959C68.453 20.8501 70.87 23.3984 74.0751 26.3408C76.3344 28.39 78.1471 30.1765 79.5132 31.7002C80.8793 33.224 82.0352 34.9053 82.981 36.7443C83.9268 38.5833 84.3997 40.5537 84.3997 42.6554C84.3997 46.0707 83.4014 48.9605 81.4047 51.325C79.4606 53.6369 76.9649 55.3445 73.9174 56.4479C70.87 57.5513 67.7173 58.103 64.4597 58.103C61.6749 58.103 59.4418 57.7615 57.7604 57.0784C56.1316 56.3954 54.6341 55.5284 53.268 54.4775C52.2697 53.6894 51.3239 53.2953 50.4307 53.2953C49.8002 53.2953 49.2748 53.6106 48.8544 54.2411C48.4341 54.8716 47.8824 55.975 47.1993 57.5513H45.623C46.4637 55.5547 47.2781 53.164 48.0663 50.3792C48.907 47.5419 49.879 43.6274 50.9824 38.6359H52.5587C52.0858 41.1054 51.8494 43.0495 51.8494 44.4681C51.8494 48.3038 52.9002 51.2724 55.0019 53.3741C57.1036 55.4759 60.3351 56.5267 64.6962 56.5267C68.2691 56.5267 71.0801 55.7123 73.1292 54.0835C75.2309 52.4546 76.2818 49.9851 76.2818 46.6749C76.2818 44.6783 75.8877 42.8393 75.0996 41.1579C74.3114 39.4766 73.3394 38.0054 72.1834 36.7443C71.08 35.4308 69.53 33.8019 67.5334 31.8578C65.4317 29.8612 63.7503 28.1536 62.4893 26.7349C61.2808 25.3163 60.23 23.6612 59.3368 21.7696C58.4961 19.8781 58.0757 17.7764 58.0757 15.4645C58.0757 12.2068 58.8901 9.422 60.5189 7.1102C62.2003 4.7983 64.3547 3.0644 66.9818 1.9084C69.6615 0.699903 72.4724 0.0957031 75.4148 0.0957031C77.5691 0.0957031 79.4344 0.358402 81.0107 0.883802C82.5869 1.4093 84.1371 2.2499 85.6608 3.4059C86.9218 4.3517 87.7888 4.8245 88.2617 4.8245C88.682 4.8245 89.076 4.5093 89.4438 3.8788C89.8641 3.1957 90.337 2.1186 90.8624 0.647404H92.4388Z" fill="white"/>
</svg>
